# xmcd
#
# Track frame offsets:
#       150
#       14560
#       32335
#       46962
#       60547
#       80980
#       97947
#       122572
#       140665
#       161097
#       179920
#       192362
#
# Disc length: 2843 seconds
#
# Revision: 0
# Processed by: cddbd v1.4PL0 Copyright (c) Steve Scherf et al.
# Submitted via: CD-DA_X-Tractor v0.23
#
DISCID=a70b190c
DTITLE=Verlon Thompson - Out of Our Hands
DYEAR=1995
DGENRE=
TTITLE0=Just a Kiss
TTITLE1=The Trouble with Texas
TTITLE2=Ordinary Day
TTITLE3=Troublemaker
TTITLE4=Like There's No Tomorrow
TTITLE5=My Father's Eyes
TTITLE6=Bad Angel
TTITLE7=But Not for Love
TTITLE8=Less of the Same
TTITLE9=You Say You Will
TTITLE10=Love Won't Leave Us Alone
TTITLE11=Sweet Allis Chalmers
EXTD=
EXTT0=
EXTT1=
EXTT2=
EXTT3=
EXTT4=
EXTT5=
EXTT6=
EXTT7=
EXTT8=
EXTT9=
EXTT10=
EXTT11=
PLAYORDER=
